<?xml version="1.0" encoding="utf-8"?>
<!-- Generator: Adobe Illustrator 23.0.3, SVG Export Plug-In . SVG Version: 6.00 Build 0)  -->
<svg version="1.1" id="Layer_1" xmlns="http://www.w3.org/2000/svg" xmlns:xlink="http://www.w3.org/1999/xlink" x="0px" y="0px"
	 viewBox="0 0 1183.7 314.8" style="enable-background:new 0 0 1183.7 314.8;" xml:space="preserve">
<style type="text/css">
	.st0{fill:#FFFFFF;}
	.st1{fill:#90A529;}
	.st2{clip-path:url(#SVGID_2_);}
	.st3{fill:url(#SVGID_3_);}
</style>
<title>Farmavision</title>
<rect width="1183.7" height="314.8"/>
<path class="st0" d="M422.3,263.3c-3.2,1.6-9.5,3.2-17.7,3.2c-18.9,0-33.1-11.9-33.1-33.8c0-21,14.2-35.1,35-35.1
	c8.4,0,13.6,1.8,15.9,3l-2.1,7c-4.2-1.9-8.8-2.9-13.5-2.8c-15.7,0-26.1,10-26.1,27.6c0,16.4,9.4,26.9,25.7,26.9
	c4.8,0.1,9.6-0.9,14.1-2.8L422.3,263.3z"/>
<path class="st0" d="M494,244.5l-7,21h-8.9l22.7-66.9h10.4l22.9,67h-9.2l-7.1-21L494,244.5z M515.9,237.7l-6.5-19.3
	c-1.5-4.4-2.5-8.4-3.5-12.2h-0.2c-1,4-2.1,8-3.4,12.1l-6.5,19.3L515.9,237.7z"/>
<path class="st0" d="M593.6,265.6v-67h9.4l21.4,33.9c4.5,7,8.5,14.2,12,21.7l0.2-0.1c-0.8-8.9-1-17.1-1-27.5v-28h8.1v66.9h-8.7
	l-21.2-34c-4.6-7.2-8.8-14.7-12.5-22.4l-0.3,0.1c0.5,8.4,0.7,16.5,0.7,27.6v28.7H593.6z"/>
<path class="st0" d="M719.5,244.5l-7,21h-8.9l22.7-66.9h10.4l22.8,67h-9.3l-7.1-21L719.5,244.5z M741.4,237.7l-6.6-19.3
	c-1.5-4.4-2.5-8.4-3.5-12.2h-0.2c-1,4-2.1,8-3.4,12.1l-6.5,19.3L741.4,237.7z"/>
<path class="st0" d="M819,199.5c5.5-1,11-1.4,16.6-1.4c9.2,0,15.2,1.7,19.3,5.5c3.5,3.3,5.4,7.9,5.3,12.7c0,8.8-5.6,14.7-12.6,17.1
	v0.3c5.2,1.8,8.2,6.6,9.8,13.5c2.2,9.3,3.8,15.8,5.2,18.4h-8.9c-1.1-1.9-2.6-7.6-4.5-16c-2-9.2-5.6-12.7-13.4-13h-8.1v29H819
	L819,199.5z M827.7,230h8.8c9.2,0,15.1-5.1,15.1-12.7c0-8.6-6.3-12.4-15.4-12.5c-2.9-0.1-5.7,0.2-8.5,0.8L827.7,230z"/>
<path class="st0" d="M930.7,198.6v67h-8.6v-67H930.7z"/>
<path class="st0" d="M1006.3,244.5l-7,21h-8.9l22.7-66.9h10.4l22.9,67h-9.2l-7.1-21L1006.3,244.5z M1028.2,237.7l-6.5-19.3
	c-1.5-4.4-2.5-8.4-3.5-12.2h-0.2c-1,4-2.1,8-3.4,12.1l-6.5,19.3L1028.2,237.7z"/>
<path class="st0" d="M1104.7,255c4.7,2.8,10,4.3,15.5,4.4c8.8,0,14-4.7,14-11.4c0-6.3-3.6-9.8-12.6-13.3c-10.9-3.9-17.7-9.5-17.7-19
	c0-10.4,8.6-18.2,21.6-18.2c5.1-0.2,10.2,0.9,14.8,3.3l-2.4,7c-3.9-2.1-8.3-3.2-12.7-3.2c-9.1,0-12.6,5.5-12.6,10
	c0,6.3,4.1,9.3,13.3,12.9c11.3,4.4,17.1,9.8,17.1,19.6c0,10.3-7.6,19.3-23.4,19.3c-6.4,0-13.5-1.9-17.1-4.2L1104.7,255z"/>
<path class="st1" d="M408.6,89.3c0,4.7-1.6,7-4.7,7h-19.5v49.9c0,3.8-1.6,5.7-4.7,5.7c-1.8,0.2-3.7,0-5.5-0.5
	c-1.7-0.7-2.5-2.4-2.5-5.2V84.7c0-13.5,9.5-20.3,28.6-20.3c2.1-0.2,4.1,0.1,6.1,0.6c1.5,0.9,2.2,3,2.2,6.4c0,3.7-1.6,5.6-4.7,5.6
	c-3.7-0.1-7.5,0-11.2,0.4c-5.4,0.9-8.1,3-8.1,6.2h19.3C407,83.7,408.6,85.6,408.6,89.3z"/>
<path class="st1" d="M499.5,131.3c0,13.8-8.7,20.7-26.1,20.7h-31.2c-6.1,0.2-12.1-1.4-17.4-4.4c-6.5-3.7-9.8-8.9-9.9-15.6v-8.8
	c-0.3-6.7,3.4-13,9.4-16.1c5.3-3,11.3-4.4,17.4-4.2h45.1c-0.7-4.8-6.5-7.3-17.3-7.3H468l-2.2,0.1c-0.2,0-0.4,0-0.6,0h-3
	c-3.1,0-4.7-2.4-4.7-7.1c0-3.7,1.6-5.6,4.7-5.6c10.2,0,18,0.8,23.4,2.5c9.3,3.1,13.9,9.3,13.9,18.7V131.3z M487,127.7
	c0-0.7,0-1.5,0-2.5s0-2.2-0.1-3.5c-0.1-1.3-0.1-2.5-0.1-3.5s0-1.8,0-2.5h-45.3c-2.8,0-5.6,0.6-8.2,1.7c-3.7,1.5-5.5,3.4-5.5,5.8v8.7
	c0,2.5,1.9,4.5,5.7,5.8c2.7,1.1,5.5,1.6,8.4,1.6h31.7c4.8,0,8-0.5,9.8-1.7C485.8,136.1,487,132.8,487,127.7L487,127.7z"/>
<path class="st1" d="M544.2,90.3c0,3.7-1.9,5.6-5.7,5.7c-0.5,0-1.3,0-2.3-0.1c-1-0.1-1.7-0.1-2.3-0.1c-9.8,0-14.7,2.9-14.7,8.7v41.8
	c0,2.8-0.9,4.5-2.7,5.2c-1.8,0.4-3.7,0.5-5.6,0.4c-3,0-4.5-1.9-4.5-5.7v-41.8c0-9,3.9-15.1,11.7-18.3c4.8-2,11.8-3,21.2-3
	C542.5,83.1,544.2,85.5,544.2,90.3z"/>
<path class="st1" d="M657.5,146.3c0,3.8-1.6,5.7-4.7,5.7c-1.9,0.1-3.7,0-5.5-0.5c-1.7-0.7-2.6-2.4-2.6-5.2v-42.4
	c0-5.4-5.4-8.2-16.3-8.2H626c-0.4,0-0.7,0-0.7,0.1c-3.5,0-7,0.4-10.3,1.3c-3.8,1.4-5.7,4.2-5.7,8.8v40.5c0,2.7-0.9,4.4-2.6,5.2
	c-1.8,0.5-3.7,0.7-5.5,0.5c-3.2,0-4.8-1.9-4.8-5.7v-40.6c0-4.1-1.2-6.8-3.7-8.3c-1.7-1-4.4-1.5-8.3-1.5h-3.1c-0.2,0-0.4,0-0.5,0
	l-2.1-0.1H577c-11,0-16.5,2.8-16.5,8.4v42.3c0,2.7-0.9,4.4-2.5,5.2c-1.8,0.5-3.7,0.7-5.5,0.5c-3.1,0-4.7-1.9-4.7-5.7v-40.9
	c0-14.9,9.3-22.4,27.8-22.4c3.7,0,6.7,0,9,0.1c1.7,0,3.5,0.2,5.2,0.4c4.8,0.7,9.4,2.6,13.3,5.4c4-2.8,8.6-4.6,13.4-5.2
	c4.7-0.5,9.5-0.7,14.2-0.6c17.9,0,26.8,7.5,26.8,22.4L657.5,146.3z"/>
<path class="st1" d="M750.7,131.3c0,13.8-8.7,20.7-26.1,20.7h-31.2c-6.1,0.2-12.1-1.4-17.4-4.4c-6.5-3.7-9.8-8.9-9.8-15.6v-8.8
	c-0.3-6.7,3.4-13,9.4-16.1c5.3-3,11.3-4.4,17.4-4.2h45.1c-0.7-4.8-6.5-7.3-17.3-7.3h-1.6l-2.2,0.1c-0.2,0-0.4,0-0.6,0h-3
	c-3.1,0-4.7-2.4-4.7-7.1c0-3.7,1.6-5.6,4.7-5.6c10.2,0,18,0.8,23.4,2.5c9.3,3.1,13.9,9.3,13.9,18.7V131.3z M738.1,127.7
	c0-0.7,0-1.5,0-2.5s0-2.2-0.1-3.5c-0.1-1.3-0.1-2.5-0.1-3.5c0-1,0-1.8,0-2.5h-45.3c-2.8,0-5.6,0.6-8.2,1.7c-3.7,1.5-5.5,3.4-5.5,5.8
	v8.7c0,2.5,1.9,4.5,5.7,5.8c2.7,1.1,5.5,1.6,8.4,1.6h31.7c4.8,0,8-0.6,9.8-1.7C737,136.1,738.2,132.8,738.1,127.7L738.1,127.7z"/>
<path class="st1" d="M847.6,87.8c-0.1,1.7-0.7,3.2-1.8,4.5l-40.7,58.3c-1,1.7-2.8,2.8-4.8,2.9c-1.9-0.1-3.7-1.1-4.7-2.8l-40.9-58.4
	c-1-1.3-1.7-2.9-1.8-4.5c0-3.3,2.3-5,7-5c2.8,0,4.7,0.8,5.8,2.4l34.7,50.1l34.5-50.1c1.1-1.6,3-2.4,5.8-2.4
	C845.3,82.8,847.6,84.5,847.6,87.8z"/>
<path class="st1" d="M869.5,73.7c0.1,2.3-0.9,4.5-2.7,5.9c-3.3,2.5-7.9,2.5-11.2,0c-3.2-2.8-3.6-7.8-0.8-11c0.2-0.3,0.5-0.5,0.8-0.8
	c3.3-2.5,7.9-2.5,11.2,0C868.6,69.2,869.6,71.4,869.5,73.7z M867.8,146.3c0,3.8-1.6,5.7-4.8,5.7c-1.8,0.1-3.7,0-5.4-0.5
	c-1.7-0.7-2.5-2.4-2.5-5.2V88.5c0-3.7,1.6-5.6,4.8-5.6s4.9,0.2,5.4,0.5c1.7,0.7,2.5,2.4,2.5,5.1V146.3z"/>
<path class="st1" d="M949.4,132.3c0,13.1-8.4,19.7-25.3,19.7h-43.2c-3.1,0-4.7-1.9-4.7-5.7c0-4.7,1.6-7,4.7-7h43.3c8,0,12-2.3,12-7
	v-2.6c0-4.2-3.6-6.2-10.9-6.2h-20.8c-19.1,0-28.6-6.3-28.6-18.9v-3.7c0-8.4,4.8-13.8,14.4-16.1c2.8-0.7,5.6-1.1,8.5-1.2
	c3.7-0.3,8.4-0.4,14.1-0.4c3.2,0,4.8,2.4,4.8,7.2c0,3.7-1.6,5.6-4.8,5.6h-9.2c-4.8,0-7.7,0.1-8.7,0.2c-4.2,0.7-6.4,2.2-6.4,4.7v3.6
	c0,4.1,5.3,6.2,15.9,6.2h21.2c15.8,0,23.7,6.2,23.7,18.6L949.4,132.3z"/>
<path class="st1" d="M972.2,73.7c0.1,2.3-0.9,4.5-2.7,5.9c-3.3,2.5-7.9,2.5-11.2,0c-3.2-2.8-3.6-7.8-0.8-11c0.2-0.3,0.5-0.5,0.8-0.8
	c3.3-2.5,7.9-2.5,11.2,0C971.3,69.2,972.3,71.4,972.2,73.7z M970.5,146.3c0,3.8-1.6,5.7-4.8,5.7c-1.8,0.2-3.7,0-5.4-0.5
	c-1.7-0.7-2.5-2.4-2.5-5.2V88.5c0-3.7,1.6-5.6,4.8-5.6s4.9,0.2,5.4,0.5c1.7,0.7,2.5,2.4,2.5,5.1L970.5,146.3z"/>
<path class="st1" d="M1059.3,130.5c0,7.8-3.3,13.6-9.8,17.2c-4.7,2.8-10.8,4.2-18.5,4.2h-21.3c-6.6,0.1-13.1-1.3-19.1-4.2
	c-7-3.7-10.5-9.4-10.5-17.2v-25.4c0-7.7,3.5-13.5,10.5-17.5c5.1-3.1,11.5-4.6,19.1-4.6h21.3c18.9,0,28.3,7.3,28.3,22L1059.3,130.5z
	 M1046.4,130.5v-26.5c0-5.5-5.2-8.2-15.7-8.2h-20.8c-3.5-0.1-7.1,0.5-10.4,1.7c-4.4,1.7-6.5,4.2-6.5,7.6v25.3c0,3.2,2.2,5.6,6.7,7.2
	c3.3,1.1,6.8,1.6,10.4,1.5h20.7c3.2,0,6.5-0.6,9.5-1.7C1044.3,135.9,1046.4,133.6,1046.4,130.5L1046.4,130.5z"/>
<path class="st1" d="M1147,146.3c0,3.8-1.6,5.7-4.8,5.7c-1.8,0.2-3.7,0-5.5-0.5c-1.7-0.7-2.6-2.4-2.6-5.2v-43.8
	c0-3.1-2.2-5.1-6.5-6.1c-1.2-0.2-2.3-0.4-3.5-0.4c-1.6,0-3.6-0.1-6-0.1h-22c-2.2,0-4.1,0-5.6,0.1c-1.2,0.1-2.4,0.2-3.6,0.4
	c-4.1,1-6.2,3-6.2,6.1v43.7c0,3.8-1.6,5.7-4.7,5.7c-1.8,0.2-3.7,0-5.5-0.5c-1.7-0.7-2.5-2.4-2.5-5.2v-43.6
	c0-13.1,9.8-19.6,29.3-19.6h20.9c19.3,0,29,6.5,29,19.4V146.3z"/>
<g>
	<defs>
		<path id="SVGID_1_" d="M104,131.4v8.3l0,0v41.1c0,5.9,4.8,10.7,10.7,10.7h39.5c2.9,0,5.3,2.4,5.3,5.3v23.2c0,2.9-2.4,5.3-5.3,5.3
			H48.5c-0.6,0.1,1.6-13.2,6.9-20.5c3.7-4.9,8.8-8.6,14.6-10.7V166c0,0,0.2-18,13.4-27.6C90.7,133.1,104.1,130.8,104,131.4z
			 M295.9,184.5c13.2-9.7,13.4-27.6,13.4-27.6v-28.3c5.8-2.1,10.9-5.8,14.6-10.7c5.3-7.3,7.5-20.6,6.9-20.5H225.2
			c-2.9,0-5.3,2.4-5.3,5.3V126c0,2.9,2.4,5.3,5.3,5.3h39.6c5.9,0,10.7,4.8,10.7,10.7v41.1l0,0v8.3
			C275.2,192.1,288.6,189.9,295.9,184.5z M166.6,268c9.7,13.2,27.6,13.4,27.6,13.4h28.3c2.1,5.8,5.8,10.9,10.7,14.6
			c7.3,5.3,20.6,7.5,20.5,6.9v-8.3l0,0v-18.5l0,0v-23.2l0,0v-55.6c0-2.9-2.4-5.3-5.3-5.3h-23.2c-2.9,0-5.3,2.4-5.3,5.3v39.6
			c0,5.9-4.8,10.7-10.7,10.7h-49.4C159,247.4,161.3,260.7,166.6,268z M213.8,54.3c-9.7-13.2-27.6-13.4-27.6-13.4h-28.3
			c-2.1-5.8-5.8-10.9-10.7-14.6c-7.3-5.3-20.6-7.6-20.5-6.9v8.3l0,0v18.5l0,0v23.3l0,0V125c0,2.9,2.4,5.3,5.3,5.3h23.2
			c3,0,5.3-2.4,5.4-5.3V85.4c0-5.9,4.8-10.7,10.7-10.7h49.5C221.3,74.9,219.1,61.5,213.8,54.3z"/>
	</defs>
	<clipPath id="SVGID_2_">
		<use xlink:href="#SVGID_1_"  style="overflow:visible;"/>
	</clipPath>
	<g class="st2">
		
			<radialGradient id="SVGID_3_" cx="188.89" cy="148.45" r="161.72" gradientTransform="matrix(1 0 0 -1 0 316)" gradientUnits="userSpaceOnUse">
			<stop  offset="0.42" style="stop-color:#90A529"/>
			<stop  offset="0.58" style="stop-color:#6E7E20"/>
			<stop  offset="0.91" style="stop-color:#181B08"/>
			<stop  offset="0.99" style="stop-color:#020202"/>
		</radialGradient>
		<circle class="st3" cx="188.9" cy="167.6" r="161.7"/>
	</g>
</g>
</svg>
